<svg width="20" height="20" viewBox="0 0 20 20" fill="none" xmlns="http://www.w3.org/2000/svg">
<circle cx="10" cy="10" r="10" fill="white" fill-opacity="0.7"/>
<path fill-rule="evenodd" clip-rule="evenodd" d="M14.7487 10.624C14.7727 10.424 14.7887 10.216 14.7887 9.99998C14.7887 9.78398 14.7727 9.57597 14.7407 9.37598L16.0927 8.31998C16.2127 8.22398 16.2447 8.04798 16.1727 7.91198L14.8927 5.69598C14.8127 5.55198 14.6447 5.50398 14.5007 5.55198L12.9087 6.19198C12.5727 5.93598 12.2207 5.72798 11.8287 5.56798L11.5887 3.87198C11.5647 3.71198 11.4287 3.59998 11.2687 3.59998H8.70874C8.54874 3.59998 8.42074 3.71198 8.39674 3.87198L8.15674 5.56798C7.76474 5.72798 7.40474 5.94398 7.07674 6.19198L5.48474 5.55198C5.34074 5.49598 5.17274 5.55198 5.09274 5.69598L3.81274 7.91198C3.73274 8.05598 3.76474 8.22398 3.89274 8.31998L5.24474 9.37598C5.21274 9.57597 5.18874 9.79198 5.18874 9.99998C5.18874 10.208 5.20474 10.424 5.23674 10.624L3.88474 11.68C3.76474 11.776 3.73274 11.952 3.80474 12.088L5.08474 14.304C5.16474 14.448 5.33274 14.496 5.47674 14.448L7.06874 13.808C7.40474 14.064 7.75674 14.272 8.14874 14.432L8.38874 16.128C8.42074 16.288 8.54874 16.4 8.70874 16.4H11.2687C11.4287 16.4 11.5647 16.288 11.5807 16.128L11.8207 14.432C12.2127 14.272 12.5727 14.056 12.9007 13.808L14.4927 14.448C14.6367 14.504 14.8047 14.448 14.8847 14.304L16.1647 12.088C16.2447 11.944 16.2127 11.776 16.0847 11.68L14.7487 10.624ZM9.98873 12.4C8.66874 12.4 7.58874 11.32 7.58874 9.99998C7.58874 8.67998 8.66874 7.59998 9.98873 7.59998C11.3087 7.59998 12.3887 8.67998 12.3887 9.99998C12.3887 11.32 11.3087 12.4 9.98873 12.4Z" fill="#2F80ED"/>
</svg>
